<svg width="190" height="32" viewBox="0 0 190 32" fill="none" xmlns="http://www.w3.org/2000/svg">
<mask id="path-1-outside-1_1350_1201" maskUnits="userSpaceOnUse" x="-2" y="-1" width="193" height="34" fill="black">
<rect fill="white" x="-2" y="-1" width="193" height="34"/>
<path d="M17.6381 31H-0.0018748V1.8H17.2781V5.96H4.75813V14.08H16.5181V18.24H4.75813V26.84H17.6381V31ZM28.3844 31H23.9044V1.8H31.7444L45.3044 26.88H45.8244V1.8H50.3844V31H42.4644L28.9044 5.92H28.3844V31ZM67.9603 31.72C60.4403 31.72 56.2403 27.76 56.2403 22.28H60.9603C60.9603 24.8 62.8003 27.48 67.9603 27.48C72.6803 27.48 74.8803 25.24 74.8803 22.52C74.8803 20.28 72.9603 18.8 69.1203 18.48L66.2003 18.2C60.8403 17.76 57.3603 14.72 57.3603 9.96C57.3603 4.56 61.5203 0.959998 67.8003 0.959998C74.1603 0.959998 78.3203 4.6 78.3203 10.2H73.6003C73.6003 7.64 71.8003 5.2 67.8003 5.2C63.9203 5.2 62.0803 7.48 62.0803 9.96C62.0803 11.96 63.5603 13.64 66.6403 13.92L69.5203 14.16C75.6403 14.68 79.6403 17.6 79.6403 22.52C79.6403 28 75.0003 31.72 67.9603 31.72ZM95.2838 31H90.4838V6.04H81.8438V1.8H103.964V6.04H95.2838V31ZM126.466 31H108.826V1.8H126.106V5.96H113.586V14.08H125.346V18.24H113.586V26.84H126.466V31ZM134.533 31H129.733L139.973 1.8H147.933L158.493 31H153.533L150.613 22.76H137.373L134.533 31ZM138.812 18.6H149.133L144.613 5.92H143.173L138.812 18.6ZM173.598 31.16H163.318V1.6H173.598C184.118 1.6 189.278 8.68 189.278 15.92V16.8C189.278 23.76 184.118 31.16 173.598 31.16ZM173.998 6.04H168.118V26.72H173.998C180.478 26.72 184.398 22.32 184.398 16.36C184.398 10.16 180.478 6.04 173.998 6.04Z"/>
</mask>
<path d="M17.6381 31V32H18.6381V31H17.6381ZM-0.00187492 31H-1.00187V32H-0.00187492V31ZM-0.00187492 1.8V0.799999H-1.00187V1.8H-0.00187492ZM17.2781 1.8H18.2781V0.799999H17.2781V1.8ZM17.2781 5.96V6.96H18.2781V5.96H17.2781ZM4.75813 5.96V4.96H3.75813V5.96H4.75813ZM4.75813 14.08H3.75813V15.08H4.75813V14.08ZM16.5181 14.08H17.5181V13.08H16.5181V14.08ZM16.5181 18.24V19.24H17.5181V18.24H16.5181ZM4.75813 18.24V17.24H3.75813V18.24H4.75813ZM4.75813 26.84H3.75813V27.84H4.75813V26.84ZM17.6381 26.84H18.6381V25.84H17.6381V26.84ZM17.6381 30H-0.00187492V32H17.6381V30ZM0.998125 31V1.8H-1.00187V31H0.998125ZM-0.00187492 2.8H17.2781V0.799999H-0.00187492V2.8ZM16.2781 1.8V5.96H18.2781V1.8H16.2781ZM17.2781 4.96H4.75813V6.96H17.2781V4.96ZM3.75813 5.96V14.08H5.75813V5.96H3.75813ZM4.75813 15.08H16.5181V13.08H4.75813V15.08ZM15.5181 14.08V18.24H17.5181V14.08H15.5181ZM16.5181 17.24H4.75813V19.24H16.5181V17.24ZM3.75813 18.24V26.84H5.75813V18.24H3.75813ZM4.75813 27.84H17.6381V25.84H4.75813V27.84ZM16.6381 26.84V31H18.6381V26.84H16.6381ZM28.3844 31V32H29.3844V31H28.3844ZM23.9044 31H22.9044V32H23.9044V31ZM23.9044 1.8V0.799999H22.9044V1.8H23.9044ZM31.7444 1.8L32.624 1.32439L32.3405 0.799999H31.7444V1.8ZM45.3044 26.88L44.4247 27.3556L44.7082 27.88H45.3044V26.88ZM45.8244 26.88V27.88H46.8244V26.88H45.8244ZM45.8244 1.8V0.799999H44.8244V1.8H45.8244ZM50.3844 1.8H51.3844V0.799999H50.3844V1.8ZM50.3844 31V32H51.3844V31H50.3844ZM42.4644 31L41.5847 31.4756L41.8682 32H42.4644V31ZM28.9044 5.92L29.784 5.44439L29.5005 4.92H28.9044V5.92ZM28.3844 5.92V4.92H27.3844V5.92H28.3844ZM28.3844 30H23.9044V32H28.3844V30ZM24.9044 31V1.8H22.9044V31H24.9044ZM23.9044 2.8H31.7444V0.799999H23.9044V2.8ZM30.8647 2.2756L44.4247 27.3556L46.184 26.4044L32.624 1.32439L30.8647 2.2756ZM45.3044 27.88H45.8244V25.88H45.3044V27.88ZM46.8244 26.88V1.8H44.8244V26.88H46.8244ZM45.8244 2.8H50.3844V0.799999H45.8244V2.8ZM49.3844 1.8V31H51.3844V1.8H49.3844ZM50.3844 30H42.4644V32H50.3844V30ZM43.344 30.5244L29.784 5.44439L28.0247 6.3956L41.5847 31.4756L43.344 30.5244ZM28.9044 4.92H28.3844V6.92H28.9044V4.92ZM27.3844 5.92V31H29.3844V5.92H27.3844ZM56.2403 22.28V21.28H55.2403V22.28H56.2403ZM60.9603 22.28H61.9603V21.28H60.9603V22.28ZM69.1203 18.48L69.0248 19.4755L69.0373 19.4765L69.1203 18.48ZM66.2003 18.2L66.2958 17.2045L66.2821 17.2034L66.2003 18.2ZM78.3203 10.2V11.2H79.3203V10.2H78.3203ZM73.6003 10.2H72.6003V11.2H73.6003V10.2ZM66.6403 13.92L66.5498 14.9159L66.5573 14.9165L66.6403 13.92ZM69.5203 14.16L69.605 13.1636L69.6034 13.1635L69.5203 14.16ZM67.9603 30.72C64.3684 30.72 61.6883 29.7748 59.9243 28.2899C58.1762 26.8186 57.2403 24.7468 57.2403 22.28H55.2403C55.2403 25.2932 56.4044 27.9414 58.6364 29.8201C60.8523 31.6852 64.0322 32.72 67.9603 32.72V30.72ZM56.2403 23.28H60.9603V21.28H56.2403V23.28ZM59.9603 22.28C59.9603 23.7869 60.515 25.3727 61.8599 26.5715C63.1988 27.765 65.2126 28.48 67.9603 28.48V26.48C65.548 26.48 64.0618 25.855 63.1907 25.0785C62.3256 24.3073 61.9603 23.2931 61.9603 22.28H59.9603ZM67.9603 28.48C70.4668 28.48 72.4405 27.886 73.81 26.8049C75.2014 25.7063 75.8803 24.1714 75.8803 22.52H73.8803C73.8803 23.5886 73.4592 24.5336 72.5707 25.2351C71.6601 25.954 70.1738 26.48 67.9603 26.48V28.48ZM75.8803 22.52C75.8803 21.0659 75.2353 19.8386 74.0239 18.968C72.8584 18.1302 71.2152 17.6511 69.2034 17.4835L69.0373 19.4765C70.8654 19.6289 72.1022 20.0498 72.8567 20.592C73.5653 21.1014 73.8803 21.7341 73.8803 22.52H75.8803ZM69.2158 17.4846L66.2958 17.2046L66.1049 19.1954L69.0249 19.4754L69.2158 17.4846ZM66.2821 17.2034C63.7642 16.9967 61.7831 16.187 60.4456 14.9624C59.1247 13.7531 58.3603 12.0765 58.3603 9.96H56.3603C56.3603 12.6035 57.3359 14.8269 59.095 16.4376C60.8375 18.033 63.2764 18.9633 66.1185 19.1966L66.2821 17.2034ZM58.3603 9.96C58.3603 7.53487 59.2855 5.56697 60.8787 4.19205C62.4852 2.80562 64.8465 1.96 67.8003 1.96V-0.0400019C64.4741 -0.0400019 61.6155 0.914374 59.572 2.67794C57.5151 4.45303 56.3603 6.98512 56.3603 9.96H58.3603ZM67.8003 1.96C70.7943 1.96 73.1718 2.81555 74.7858 4.23169C76.3869 5.63644 77.3203 7.66373 77.3203 10.2H79.3203C79.3203 7.13626 78.1738 4.54355 76.1048 2.72831C74.0489 0.924441 71.1663 -0.0400019 67.8003 -0.0400019V1.96ZM78.3203 9.2H73.6003V11.2H78.3203V9.2ZM74.6003 10.2C74.6003 8.68641 74.0659 7.16687 72.8999 6.02541C71.7283 4.87855 70.009 4.2 67.8003 4.2V6.2C69.5916 6.2 70.7723 6.74145 71.5008 7.45459C72.2348 8.17313 72.6003 9.15358 72.6003 10.2H74.6003ZM67.8003 4.2C65.6626 4.2 63.9707 4.83158 62.8038 5.91817C61.6373 7.00443 61.0803 8.46854 61.0803 9.96H63.0803C63.0803 8.97146 63.4433 8.05557 64.1668 7.38183C64.89 6.70841 66.058 6.2 67.8003 6.2V4.2ZM61.0803 9.96C61.0803 11.2213 61.554 12.4113 62.5228 13.3159C63.4802 14.2099 64.85 14.7614 66.5498 14.9159L66.7309 12.9241C65.3506 12.7986 64.4404 12.3701 63.8878 11.8541C63.3466 11.3487 63.0803 10.6987 63.0803 9.96H61.0803ZM66.5573 14.9165L69.4373 15.1565L69.6034 13.1635L66.7234 12.9235L66.5573 14.9165ZM69.4357 15.1564C72.372 15.4059 74.6898 16.224 76.2512 17.4713C77.7807 18.6932 78.6403 20.3667 78.6403 22.52H80.6403C80.6403 19.7533 79.4999 17.5068 77.4995 15.9087C75.5308 14.336 72.7886 13.4341 69.605 13.1636L69.4357 15.1564ZM78.6403 22.52C78.6403 24.9507 77.623 26.9633 75.8196 28.391C73.997 29.8339 71.313 30.72 67.9603 30.72V32.72C71.6476 32.72 74.8037 31.7461 77.061 29.959C79.3377 28.1567 80.6403 25.5693 80.6403 22.52H78.6403ZM95.2838 31V32H96.2838V31H95.2838ZM90.4837 31H89.4837V32H90.4837V31ZM90.4837 6.04H91.4837V5.04H90.4837V6.04ZM81.8438 6.04H80.8438V7.04H81.8438V6.04ZM81.8438 1.8V0.799999H80.8438V1.8H81.8438ZM103.964 1.8H104.964V0.799999H103.964V1.8ZM103.964 6.04V7.04H104.964V6.04H103.964ZM95.2838 6.04V5.04H94.2838V6.04H95.2838ZM95.2838 30H90.4837V32H95.2838V30ZM91.4837 31V6.04H89.4837V31H91.4837ZM90.4837 5.04H81.8438V7.04H90.4837V5.04ZM82.8438 6.04V1.8H80.8438V6.04H82.8438ZM81.8438 2.8H103.964V0.799999H81.8438V2.8ZM102.964 1.8V6.04H104.964V1.8H102.964ZM103.964 5.04H95.2838V7.04H103.964V5.04ZM94.2838 6.04V31H96.2838V6.04H94.2838ZM126.466 31V32H127.466V31H126.466ZM108.826 31H107.826V32H108.826V31ZM108.826 1.8V0.799999H107.826V1.8H108.826ZM126.106 1.8H127.106V0.799999H126.106V1.8ZM126.106 5.96V6.96H127.106V5.96H126.106ZM113.586 5.96V4.96H112.586V5.96H113.586ZM113.586 14.08H112.586V15.08H113.586V14.08ZM125.346 14.08H126.346V13.08H125.346V14.08ZM125.346 18.24V19.24H126.346V18.24H125.346ZM113.586 18.24V17.24H112.586V18.24H113.586ZM113.586 26.84H112.586V27.84H113.586V26.84ZM126.466 26.84H127.466V25.84H126.466V26.84ZM126.466 30H108.826V32H126.466V30ZM109.826 31V1.8H107.826V31H109.826ZM108.826 2.8H126.106V0.799999H108.826V2.8ZM125.106 1.8V5.96H127.106V1.8H125.106ZM126.106 4.96H113.586V6.96H126.106V4.96ZM112.586 5.96V14.08H114.586V5.96H112.586ZM113.586 15.08H125.346V13.08H113.586V15.08ZM124.346 14.08V18.24H126.346V14.08H124.346ZM125.346 17.24H113.586V19.24H125.346V17.24ZM112.586 18.24V26.84H114.586V18.24H112.586ZM113.586 27.84H126.466V25.84H113.586V27.84ZM125.466 26.84V31H127.466V26.84H125.466ZM134.533 31V32H135.246L135.478 31.3258L134.533 31ZM129.732 31L128.789 30.6691L128.322 32H129.732V31ZM139.973 1.8V0.799999H139.263L139.029 1.46907L139.973 1.8ZM147.932 1.8L148.873 1.45991L148.634 0.799999H147.932V1.8ZM158.493 31V32H159.918L159.433 30.6599L158.493 31ZM153.533 31L152.59 31.334L152.826 32H153.533V31ZM150.613 22.76L151.555 22.426L151.319 21.76H150.613V22.76ZM137.372 22.76V21.76H136.659L136.427 22.4342L137.372 22.76ZM138.812 18.6L137.867 18.2748L137.411 19.6H138.812V18.6ZM149.133 18.6V19.6H150.551L150.074 18.2642L149.133 18.6ZM144.613 5.92L145.554 5.58423L145.318 4.92H144.613V5.92ZM143.173 5.92V4.92H142.459L142.227 5.59484L143.173 5.92ZM134.533 30H129.732V32H134.533V30ZM130.676 31.3309L140.916 2.13093L139.029 1.46907L128.789 30.6691L130.676 31.3309ZM139.973 2.8H147.932V0.799999H139.973V2.8ZM146.992 2.14009L157.552 31.3401L159.433 30.6599L148.873 1.45991L146.992 2.14009ZM158.493 30H153.533V32H158.493V30ZM154.475 30.666L151.555 22.426L149.67 23.094L152.59 31.334L154.475 30.666ZM150.613 21.76H137.372V23.76H150.613V21.76ZM136.427 22.4342L133.587 30.6742L135.478 31.3258L138.318 23.0858L136.427 22.4342ZM138.812 19.6H149.133V17.6H138.812V19.6ZM150.074 18.2642L145.554 5.58423L143.671 6.25577L148.191 18.9358L150.074 18.2642ZM144.613 4.92H143.173V6.92H144.613V4.92ZM142.227 5.59484L137.867 18.2748L139.758 18.9252L144.118 6.24516L142.227 5.59484ZM163.318 31.16H162.318V32.16H163.318V31.16ZM163.318 1.6V0.599999H162.318V1.6H163.318ZM168.118 6.04V5.04H167.118V6.04H168.118ZM168.118 26.72H167.118V27.72H168.118V26.72ZM173.598 30.16H163.318V32.16H173.598V30.16ZM164.318 31.16V1.6H162.318V31.16H164.318ZM163.318 2.6H173.598V0.599999H163.318V2.6ZM173.598 2.6C178.622 2.6 182.272 4.28368 184.667 6.74267C187.072 9.21256 188.278 12.5338 188.278 15.92H190.278C190.278 12.0662 188.905 8.22744 186.1 5.34733C183.285 2.45632 179.095 0.599999 173.598 0.599999V2.6ZM188.278 15.92V16.8H190.278V15.92H188.278ZM188.278 16.8C188.278 20.0401 187.076 23.3769 184.661 25.8983C182.26 28.4055 178.609 30.16 173.598 30.16V32.16C179.108 32.16 183.297 30.2145 186.106 27.2817C188.901 24.3631 190.278 20.5199 190.278 16.8H188.278ZM173.998 5.04H168.118V7.04H173.998V5.04ZM167.118 6.04V26.72H169.118V6.04H167.118ZM168.118 27.72H173.998V25.72H168.118V27.72ZM173.998 27.72C177.474 27.72 180.345 26.5344 182.346 24.4713C184.343 22.4132 185.398 19.5606 185.398 16.36H183.398C183.398 19.1194 182.494 21.4468 180.911 23.0787C179.332 24.7056 177.003 25.72 173.998 25.72V27.72ZM185.398 16.36C185.398 13.0472 184.347 10.1965 182.338 8.17085C180.328 6.14348 177.455 5.04 173.998 5.04V7.04C177.022 7.04 179.349 7.99651 180.918 9.57915C182.49 11.1635 183.398 13.4728 183.398 16.36H185.398Z" fill="white" mask="url(#path-1-outside-1_1350_1201)"/>
</svg>
