<svg width="37" height="23" viewBox="0 0 37 23" fill="none" xmlns="http://www.w3.org/2000/svg">
<mask id="mask0_1385_1000" style="mask-type:luminance" maskUnits="userSpaceOnUse" x="0" y="0" width="37" height="23">
<path d="M0.636719 1.70445C0.636719 0.767004 1.40372 0 2.34117 0H35.294C36.2314 0 36.9984 0.767004 36.9984 1.70445V21.0216C36.9984 21.9591 36.2314 22.7261 35.294 22.7261H2.34117C1.40372 22.7261 0.636719 21.9591 0.636719 21.0216V1.70445Z" fill="white"/>
</mask>
<g mask="url(#mask0_1385_1000)">
<path d="M0.637207 1.70445C0.637207 0.767004 1.40421 0 2.34166 0H35.2944C36.2319 0 36.9989 0.767004 36.9989 1.70445V21.0216C36.9989 21.9591 36.2319 22.7261 35.2944 22.7261H2.34166C1.40421 22.7261 0.637207 21.9591 0.637207 21.0216V1.70445Z" fill="#246EA9"/>
</g>
<mask id="mask1_1385_1000" style="mask-type:luminance" maskUnits="userSpaceOnUse" x="8" y="12" width="29" height="7">
<path d="M36.604 14.0044H34.786C34.6155 14.0044 34.4735 14.0044 34.3882 14.0897C34.2746 14.1465 34.2462 14.2601 34.2462 14.4021C34.2462 14.5726 34.3314 14.6578 34.4735 14.7146C34.5871 14.743 34.7007 14.7714 34.8428 14.7714H35.3825C35.9223 14.7998 36.2916 14.8851 36.5188 15.1123C36.5472 15.1407 36.5756 15.1691 36.604 15.226V14.0044ZM36.604 16.76C36.3484 17.1293 35.8938 17.2997 35.2405 17.2997H33.3088V16.3907H35.2405C35.4393 16.3907 35.553 16.3623 35.6382 16.277C35.695 16.2202 35.7518 16.135 35.7518 15.993C35.7518 15.8793 35.695 15.7657 35.6382 15.7089C35.553 15.6521 35.4677 15.6237 35.2973 15.6237C34.3598 15.5953 33.1951 15.6521 33.1951 14.3169C33.1951 13.7204 33.5928 13.067 34.6155 13.067H36.604V12.2432H34.7575C34.1894 12.2432 33.7917 12.3852 33.5076 12.5841V12.2432H30.7805C30.3544 12.2432 29.843 12.3568 29.5874 12.5841V12.2432H24.7013V12.5841C24.3036 12.3 23.6502 12.2432 23.3661 12.2432H20.1276V12.5841C19.8152 12.3 19.1334 12.2432 18.7073 12.2432H15.1279L14.3041 13.1806L13.5371 12.3H8.13965V18.1235H13.4235L14.2757 17.2145L15.0711 18.1235H18.338V16.76H18.6505C19.0766 16.76 19.5879 16.76 20.0424 16.5611V18.1235H22.7411V16.6179H22.8832C23.0536 16.6179 23.0536 16.6179 23.0536 16.7884V18.1235H31.2066C31.7179 18.1235 32.2577 17.9815 32.5702 17.7542V18.1235H35.1552C35.695 18.1235 36.2063 18.0383 36.6324 17.8679V16.76H36.604ZM32.5986 15.0839C32.7974 15.2828 32.9111 15.5384 32.9111 15.9646C32.9111 16.8736 32.3429 17.2713 31.3486 17.2713H29.3885V16.3907H31.3202C31.5191 16.3907 31.6327 16.3623 31.7179 16.277C31.7747 16.2202 31.8316 16.135 31.8316 15.993C31.8316 15.8793 31.7747 15.7657 31.7179 15.7089C31.6327 15.6521 31.5475 15.6237 31.3486 15.6237C30.4112 15.5953 29.2465 15.6521 29.2465 14.3169C29.2465 13.7204 29.6158 13.067 30.6669 13.067H32.6554V13.9476H30.8373C30.6384 13.9476 30.5248 13.9476 30.4396 14.0328C30.326 14.0897 30.2976 14.2033 30.2976 14.3453C30.2976 14.5158 30.3828 14.601 30.5248 14.6578C30.6384 14.6862 30.7521 14.7146 30.9225 14.7146H31.4623C32.0304 14.7714 32.3713 14.8567 32.5986 15.0839ZM23.5934 14.8283C23.4513 14.9135 23.2809 14.9135 23.1104 14.9135H21.8889V13.976H23.1104C23.2809 13.976 23.4797 13.976 23.5934 14.0612C23.7354 14.1181 23.7922 14.2601 23.7922 14.4305C23.8206 14.601 23.7354 14.743 23.5934 14.8283ZM24.2183 15.3396C24.4456 15.4248 24.616 15.5668 24.7013 15.6805C24.8433 15.8793 24.8717 16.0782 24.8717 16.4475V17.2713H23.8774V16.76C23.8774 16.5043 23.9059 16.135 23.707 15.9361C23.565 15.7941 23.3377 15.7373 22.9684 15.7373H21.8889V17.2713H20.8946V13.1238H23.1957C23.707 13.1238 24.0763 13.1522 24.3888 13.3227C24.7013 13.5215 24.9001 13.7772 24.9001 14.2601C24.9001 14.9135 24.474 15.2544 24.2183 15.3396ZM25.4683 13.1238H28.792V14.0044H26.4625V14.7714H28.7351V15.6237H26.4625V16.4475H28.792V17.3281H25.4683V13.1238ZM18.7357 15.0555H17.4289V14.0044H18.7357C19.105 14.0044 19.3322 14.1465 19.3322 14.5158C19.3606 14.8567 19.105 15.0555 18.7357 15.0555ZM16.4347 16.9304L14.9007 15.226L16.4347 13.5783V16.9304ZM12.486 16.4191H10.043V15.5953H12.2303V14.743H10.043V13.976H12.5428L13.6223 15.1976L12.486 16.4191ZM20.4117 14.4874C20.4117 15.6521 19.5595 15.8793 18.6789 15.8793H17.4289V17.2713H15.4972L14.2757 15.8793L12.9973 17.2713H9.04869V13.1238H13.0542L14.2757 14.4874L15.554 13.1238H18.7357C19.5311 13.1238 20.4117 13.3511 20.4117 14.4874Z" fill="white"/>
</mask>
<g mask="url(#mask1_1385_1000)">
<path d="M38.0244 10.8799H6.71924V19.5442H38.0244V10.8799Z" fill="#FFFFFE"/>
</g>
<mask id="mask2_1385_1000" style="mask-type:luminance" maskUnits="userSpaceOnUse" x="1" y="5" width="34" height="6">
<path d="M4.27939 8.29493L3.59761 6.61888L2.91583 8.29493H4.27939ZM19.3354 7.64156C19.1934 7.72678 19.0229 7.72678 18.8525 7.72678H17.6309V6.78933H18.8525C19.0229 6.78933 19.2218 6.78933 19.3354 6.87455C19.4774 6.93137 19.5343 7.0734 19.5343 7.24385C19.5343 7.4427 19.449 7.58474 19.3354 7.64156ZM27.9997 8.29493L27.3179 6.61888L26.6362 8.29493H27.9997ZM11.8642 10.113H10.8415V6.84614L9.39275 10.113H8.51212L7.06333 6.84614V10.113H5.0464L4.64869 9.17556H2.57494L2.17723 10.113H1.09774L2.88742 5.9371H4.36461L6.06907 9.88575V5.9371H7.6883L8.99505 8.77786L10.1882 5.9371H11.8358V10.113H11.8642ZM15.9265 10.113H12.6028V5.9371H15.9265V6.81774H13.5971V7.55633H15.8697V8.40856H13.5971V9.23238H15.9265V10.113ZM20.6422 7.045C20.6422 7.69837 20.1876 8.06767 19.932 8.15289C20.1592 8.23811 20.3297 8.38015 20.4149 8.49378C20.5569 8.69264 20.5853 8.89149 20.5853 9.26079V10.0846H19.5911V9.54486C19.5911 9.28919 19.6195 8.9199 19.4206 8.72104C19.2786 8.57901 19.0513 8.5506 18.682 8.5506H17.6025V10.0562H16.6083V5.9371H18.9093C19.4206 5.9371 19.7899 5.96551 20.1308 6.13595C20.4433 6.3064 20.6422 6.59047 20.6422 7.045ZM21.2103 10.113H22.233V5.9371H21.2103V10.113ZM34.0505 10.113H32.6301L30.7268 6.98818V10.113H28.6815L28.2838 9.17556H26.2384L25.8691 10.113H24.7044C24.2215 10.113 23.5965 9.99938 23.2556 9.65849C22.9148 9.28919 22.7159 8.83467 22.7159 8.06767C22.7159 7.4427 22.8295 6.87455 23.2556 6.44844C23.5681 6.10755 24.0795 5.96551 24.7612 5.96551H25.7271V6.84614H24.7897C24.4204 6.84614 24.2215 6.90296 24.0227 7.10181C23.8522 7.27226 23.7386 7.61315 23.7386 8.03926C23.7386 8.49378 23.8238 8.80627 24.0227 9.03353C24.1647 9.20397 24.4488 9.26079 24.7044 9.26079H25.159L26.5793 5.96551H28.0849L29.761 9.91416V5.9371H31.295L33.0563 8.83467V5.9371H34.0789V10.113H34.0505ZM1.06934 10.9368H2.77379L3.1715 9.99938H4.02372L4.39302 10.9368H7.77352V10.2266L8.08601 10.9368H9.81887L10.1029 10.2266V10.9368H18.4548V9.40282H18.6252C18.7388 9.40282 18.7673 9.43123 18.7673 9.60168V10.9368H23.0852V10.5675C23.4261 10.7664 23.9658 10.9368 24.676 10.9368H26.4941L26.8918 9.99938H27.744L28.1133 10.9368H31.6075V10.0562L32.1472 10.9368H34.9596V5.11328H32.1756V5.79506L31.7779 5.11328H28.9372V5.79506L28.5679 5.11328H24.7328C24.0795 5.11328 23.5113 5.1985 23.0568 5.45417V5.11328H20.4149V5.45417C20.1308 5.1985 19.7331 5.11328 19.2786 5.11328H9.59161L8.93823 6.61888L8.28486 5.11328H5.21684V5.79506L4.87595 5.11328H2.26245L1.06934 7.86882V10.9368Z" fill="white"/>
</mask>
<g mask="url(#mask2_1385_1000)">
<path d="M36.3515 3.69336H-0.351074V12.3577H36.3515V3.69336Z" fill="#FFFFFE"/>
</g>
<path d="M22.2317 5.9375H21.209V10.1134H22.2317V5.9375Z" fill="#246EA9"/>
</svg>
