<svg width="100" height="100" viewBox="0 0 100 100" fill="none" xmlns="http://www.w3.org/2000/svg">
<path d="M92.5473 56.0673C95.9454 56.0673 98.7002 53.3126 98.7002 49.9145C98.7002 46.5164 95.9454 43.7617 92.5473 43.7617C89.1492 43.7617 86.3945 46.5164 86.3945 49.9145C86.3945 53.3126 89.1492 56.0673 92.5473 56.0673Z" fill="white" stroke="#BDB48C" stroke-miterlimit="10" stroke-linecap="round" stroke-linejoin="round"/>
<path d="M80.0278 26.0048C83.4259 26.0048 86.1806 23.2501 86.1806 19.852C86.1806 16.4539 83.4259 13.6992 80.0278 13.6992C76.6297 13.6992 73.875 16.4539 73.875 19.852C73.875 23.2501 76.6297 26.0048 80.0278 26.0048Z" fill="white" stroke="#BDB48C" stroke-miterlimit="10" stroke-linecap="round" stroke-linejoin="round"/>
<path d="M49.9145 13.6064C53.3126 13.6064 56.0673 10.8517 56.0673 7.45359C56.0673 4.05549 53.3126 1.30078 49.9145 1.30078C46.5164 1.30078 43.7617 4.05549 43.7617 7.45359C43.7617 10.8517 46.5164 13.6064 49.9145 13.6064Z" fill="white" stroke="#BDB48C" stroke-miterlimit="10" stroke-linecap="round" stroke-linejoin="round"/>
<path d="M19.852 26.1279C23.2501 26.1279 26.0048 23.3732 26.0048 19.9751C26.0048 16.577 23.2501 13.8223 19.852 13.8223C16.4539 13.8223 13.6992 16.577 13.6992 19.9751C13.6992 23.3732 16.4539 26.1279 19.852 26.1279Z" fill="white" stroke="#BDB48C" stroke-miterlimit="10" stroke-linecap="round" stroke-linejoin="round"/>
<path d="M7.45359 56.2392C10.8517 56.2392 13.6064 53.4845 13.6064 50.0864C13.6064 46.6883 10.8517 43.9336 7.45359 43.9336C4.05549 43.9336 1.30078 46.6883 1.30078 50.0864C1.30078 53.4845 4.05549 56.2392 7.45359 56.2392Z" fill="white" stroke="#BDB48C" stroke-miterlimit="10" stroke-linecap="round" stroke-linejoin="round"/>
<path d="M19.9731 86.3017C23.3712 86.3017 26.1259 83.547 26.1259 80.1489C26.1259 76.7508 23.3712 73.9961 19.9731 73.9961C16.575 73.9961 13.8203 76.7508 13.8203 80.1489C13.8203 83.547 16.575 86.3017 19.9731 86.3017Z" fill="white" stroke="#BDB48C" stroke-miterlimit="10" stroke-linecap="round" stroke-linejoin="round"/>
<path d="M50.0864 98.7002C53.4845 98.7002 56.2392 95.9454 56.2392 92.5473C56.2392 89.1492 53.4845 86.3945 50.0864 86.3945C46.6883 86.3945 43.9336 89.1492 43.9336 92.5473C43.9336 95.9454 46.6883 98.7002 50.0864 98.7002Z" fill="white" stroke="#BDB48C" stroke-miterlimit="10" stroke-linecap="round" stroke-linejoin="round"/>
<path d="M80.1489 86.1787C83.547 86.1787 86.3017 83.424 86.3017 80.0259C86.3017 76.6278 83.547 73.873 80.1489 73.873C76.7508 73.873 73.9961 76.6278 73.9961 80.0259C73.9961 83.424 76.7508 86.1787 80.1489 86.1787Z" fill="white" stroke="#BDB48C" stroke-miterlimit="10" stroke-linecap="round" stroke-linejoin="round"/>
</svg>
